<svg xmlns="http://www.w3.org/2000/svg" viewBox="0 0 1536 969">
  <g fill="white">
    <path d="M14.63,429.84v-47.27c0-1.37-.54-2.67-1.51-3.64l-13.12-13.12v82.93l11.61-11.61c1.93-1.93,3.02-4.55,3.02-7.28Z"/>
    <path d="M378.58,159.84c-2.98-.27-5.9.88-8.02,2.99l-89.51,89.51c-1.93,1.93-3.02,4.55-3.02,7.28v18.44c0,2.73,1.08,5.35,3.01,7.29l24.45,24.45c2.71,2.71,7.09,2.71,9.8,0l163.65-163.65c2.7-2.7,2.7-7.09,0-9.79l-52.02-52.02c-.97-.97-2.28-1.51-3.64-1.51h-47.27c-2.73,0-5.35,1.08-7.28,3.01l-86.01,86.01c-2.13,2.13-3.23,5.09-2.98,8.09.21,2.48-.64,5.04-2.54,6.93-3.4,3.4-8.99,3.43-12.42,0-3.43-3.43-3.4-9.02,0-12.42,1.9-1.9,4.45-2.74,6.93-2.54,3,.25,5.96-.85,8.09-2.98l86.01-86.01c1.93-1.93,3.02-4.55,3.02-7.28V28.38c0-1.37-.54-2.67-1.51-3.64L342.58,0h-64.37l-136.36,136.36c-2.71,2.71-2.71,7.09,0,9.8l24.68,24.68c1.93,1.93,4.55,3.02,7.29,3.02h17.98c2.73,0,5.35-1.09,7.28-3.02l89.75-89.75c2.12-2.12,3.23-5.07,2.98-8.07-.21-2.49.64-5.06,2.53-6.95,3.5-3.5,9.24-3.43,12.65.24,2.87,3.09,3.12,7.92.56,11.28-1.93,2.53-4.91,3.68-7.79,3.43-2.97-.27-5.9.88-8.02,2.99l-89.74,89.74c-1.93,1.93-3.02,4.55-3.02,7.28v17.98c0,2.73,1.09,5.35,3.02,7.28l43.15,43.15c1.93,1.93,4.55,3.02,7.29,3.02h18.43c2.73,0,5.35-1.09,7.28-3.02l89.52-89.52c2.12-2.12,3.23-5.07,2.98-8.07-.21-2.49.64-5.06,2.53-6.95,3.51-3.51,9.24-3.43,12.65.24,2.87,3.09,3.12,7.92.56,11.28-1.93,2.53-4.91,3.68-7.79,3.43Z"/>
    <path d="M555.68,691.13c-2.98-.27-5.9.88-8.02,2.99l-89.51,89.51c-1.93,1.93-3.02,4.55-3.02,7.28v18.44c0,2.73,1.08,5.35,3.01,7.29l24.45,24.45c2.71,2.71,7.09,2.71,9.8,0l163.65-163.65c2.7-2.7,2.7-7.09,0-9.79l-52.02-52.02c-.97-.97-2.28-1.51-3.64-1.51h-47.27c-2.73,0-5.35,1.08-7.28,3.01l-86.01,86.01c-2.13,2.13-3.23,5.09-2.98,8.09.21,2.48-.64,5.04-2.54,6.93-3.4,3.4-8.99,3.43-12.42,0s-3.4-9.02,0-12.42c1.9-1.9,4.45-2.74,6.93-2.54,3,.25,5.96-.85,8.09-2.98l86.01-86.01c1.93-1.93,3.02-4.55,3.02-7.28v-47.27c0-1.37-.54-2.67-1.51-3.64l-52.02-52.02c-2.71-2.71-7.09-2.71-9.79,0l-163.65,163.65c-2.71,2.71-2.71,7.09,0,9.8l24.68,24.67c1.93,1.93,4.55,3.02,7.28,3.02h17.98c2.73,0,5.35-1.09,7.28-3.02l89.75-89.75c2.12-2.12,3.23-5.07,2.98-8.07-.21-2.49.64-5.06,2.53-6.95,3.5-3.5,9.24-3.43,12.65.24,2.87,3.09,3.12,7.92.56,11.28-1.93,2.53-4.91,3.68-7.79,3.43-2.98-.27-5.9.88-8.02,2.99l-89.74,89.74c-1.93,1.93-3.02,4.55-3.02,7.28v17.98c0,2.73,1.09,5.35,3.02,7.28l43.15,43.15c1.93,1.93,4.55,3.02,7.28,3.02h18.43c2.73,0,5.35-1.09,7.28-3.02l89.52-89.52c2.12-2.12,3.23-5.07,2.98-8.07-.21-2.49.64-5.06,2.53-6.95,3.51-3.51,9.24-3.43,12.65.24,2.87,3.09,3.12,7.92.56,11.28-1.93,2.53-4.91,3.68-7.79,3.43Z"/>
    <path d="M980.1,880.32c3,.25,5.96-.85,8.09-2.98l86.01-86.01c1.93-1.93,3.02-4.55,3.02-7.28v-47.27c0-1.37-.54-2.67-1.51-3.64l-52.02-52.02c-2.71-2.71-7.09-2.71-9.79,0l-163.65,163.65c-2.71,2.71-2.71,7.09,0,9.8l24.68,24.68c1.93,1.93,4.55,3.02,7.29,3.02h17.98c2.73,0,5.35-1.09,7.28-3.02l89.75-89.75c2.12-2.12,3.23-5.07,2.98-8.07-.21-2.49.64-5.06,2.53-6.95,3.5-3.5,9.24-3.43,12.65.24,2.87,3.09,3.12,7.92.56,11.28-1.93,2.53-4.91,3.68-7.79,3.43-2.97-.27-5.9.88-8.02,2.99l-89.74,89.74c-1.93,1.93-3.02,4.55-3.02,7.28v17.98c0,2.73,1.09,5.35,3.02,7.28l43.15,43.15c1.93,1.93,4.55,3.02,7.29,3.02h18.43c2.73,0,5.35-1.09,7.28-3.02l89.52-89.52c2.12-2.12,3.23-5.07,2.98-8.07-.21-2.49.64-5.06,2.53-6.95,3.5-3.51,9.24-3.43,12.65.24,2.87,3.09,3.12,7.92.56,11.28-1.93,2.53-4.91,3.68-7.79,3.43-2.97-.27-5.9.88-8.02,2.99l-89.51,89.51c-1.93,1.93-3.02,4.55-3.02,7.28v.98s86.45,0,86.45,0l114.46-114.46c2.7-2.7,2.7-7.09,0-9.79l-52.02-52.02c-.97-.97-2.28-1.51-3.64-1.51h-47.27c-2.73,0-5.35,1.08-7.28,3.01l-86.01,86.01c-2.13,2.13-3.23,5.09-2.98,8.09.21,2.48-.64,5.04-2.54,6.93-3.4,3.4-8.99,3.43-12.42,0-3.43-3.43-3.4-9.02,0-12.42,1.9-1.9,4.45-2.74,6.93-2.54Z"/>
    <path d="M124.75,136.36l-52.02-52.02c-.97-.97-2.28-1.51-3.64-1.51H21.81c-2.73,0-5.35,1.08-7.28,3.01L0,100.37v73l13.46-13.46c2.12-2.12,3.23-5.07,2.98-8.07-.21-2.49.64-5.06,2.53-6.95,3.51-3.51,9.24-3.43,12.65.24,2.87,3.09,3.12,7.92.56,11.28-1.93,2.53-4.91,3.68-7.79,3.43-2.98-.27-5.9.88-8.02,2.99L0,179.2v91.69l124.75-124.75c2.7-2.7,2.7-7.09,0-9.79Z"/>
    <path d="M803,703.22c3,.25,5.96-.85,8.09-2.98l86.01-86.01c1.93-1.93,3.02-4.55,3.02-7.28v-47.27c0-1.37-.54-2.67-1.51-3.64l-52.02-52.02c-2.71-2.71-7.09-2.71-9.79,0l-163.65,163.65c-2.71,2.71-2.71,7.09,0,9.8l24.68,24.67c1.93,1.93,4.55,3.02,7.29,3.02h17.98c2.73,0,5.35-1.09,7.28-3.02l89.75-89.75c2.12-2.12,3.23-5.07,2.98-8.07-.21-2.49.64-5.06,2.53-6.95,3.5-3.5,9.24-3.43,12.65.24,2.87,3.09,3.12,7.92.56,11.28-1.93,2.53-4.91,3.68-7.79,3.43-2.97-.27-5.9.88-8.02,2.99l-89.74,89.74c-1.93,1.93-3.02,4.55-3.02,7.28v17.98c0,2.73,1.09,5.35,3.02,7.28l43.15,43.15c1.93,1.93,4.55,3.02,7.29,3.02h18.43c2.73,0,5.35-1.09,7.28-3.02l89.52-89.52c2.12-2.12,3.23-5.07,2.98-8.07-.21-2.49.64-5.06,2.53-6.95,3.51-3.51,9.24-3.43,12.65.24,2.87,3.09,3.12,7.92.56,11.28-1.93,2.53-4.91,3.68-7.79,3.43-2.97-.27-5.9.88-8.02,2.99l-89.51,89.51c-1.93,1.93-3.02,4.55-3.02,7.28v18.44c0,2.73,1.08,5.35,3.01,7.29l24.45,24.45c2.71,2.71,7.09,2.71,9.8,0l163.65-163.65c2.7-2.7,2.7-7.09,0-9.79l-52.02-52.02c-.97-.97-2.28-1.51-3.64-1.51h-47.27c-2.73,0-5.35,1.08-7.28,3.01l-86.01,86.01c-2.13,2.13-3.23,5.09-2.98,8.09.21,2.48-.64,5.04-2.54,6.93-3.4,3.4-8.99,3.43-12.42,0-3.43-3.43-3.4-9.02,0-12.42,1.9-1.9,4.45-2.74,6.93-2.54Z"/>
    <path d="M555.68,336.94c-2.98-.27-5.9.88-8.02,2.99l-89.51,89.51c-1.93,1.93-3.02,4.55-3.02,7.28v18.44c0,2.73,1.08,5.35,3.01,7.29l24.45,24.45c2.71,2.71,7.09,2.71,9.8,0l163.65-163.65c2.7-2.7,2.7-7.09,0-9.79l-52.02-52.02c-.97-.97-2.28-1.51-3.64-1.51h-47.27c-2.73,0-5.35,1.08-7.28,3.01l-86.01,86.01c-2.13,2.13-3.23,5.09-2.98,8.09.21,2.48-.64,5.04-2.54,6.93-3.4,3.4-8.99,3.43-12.42,0-3.43-3.43-3.4-9.02,0-12.42,1.9-1.9,4.45-2.74,6.93-2.54,3,.25,5.96-.85,8.09-2.98l86.01-86.01c1.93-1.93,3.02-4.55,3.02-7.28v-47.27c0-1.37-.54-2.67-1.51-3.64l-52.02-52.02c-2.71-2.71-7.09-2.71-9.79,0l-163.65,163.65c-2.71,2.71-2.71,7.09,0,9.8l24.68,24.68c1.93,1.93,4.55,3.02,7.28,3.02h17.98c2.73,0,5.35-1.09,7.28-3.02l89.75-89.75c2.12-2.12,3.23-5.07,2.98-8.07-.21-2.49.64-5.06,2.53-6.95,3.5-3.51,9.24-3.43,12.65.24,2.87,3.09,3.12,7.92.56,11.28-1.93,2.53-4.91,3.68-7.79,3.43-2.98-.27-5.9.88-8.02,2.99l-89.74,89.74c-1.93,1.93-3.02,4.55-3.02,7.28v17.98c0,2.73,1.09,5.35,3.02,7.28l43.15,43.15c1.93,1.93,4.55,3.02,7.28,3.02h18.43c2.73,0,5.35-1.09,7.28-3.02l89.52-89.52c2.12-2.12,3.23-5.07,2.98-8.07-.21-2.49.64-5.06,2.53-6.95,3.51-3.51,9.24-3.43,12.65.24,2.87,3.09,3.12,7.92.56,11.28-1.93,2.53-4.91,3.68-7.79,3.43Z"/>
    <path d="M907.3,968.32c-1.26,0-2.5.24-3.66.68h53.44c-.76-.43-1.62-.68-2.51-.68h-47.27Z"/>
    <path d="M898.61,910.23l-52.02-52.02c-2.71-2.71-7.09-2.71-9.79,0l-110.8,110.8h91.69l2.43-2.43c2.12-2.12,3.23-5.07,2.98-8.07-.21-2.49.64-5.06,2.53-6.95,3.5-3.5,9.24-3.43,12.65.24,2.87,3.09,3.12,7.92.56,11.28-1.93,2.53-4.91,3.68-7.79,3.43-2.73-.24-5.42.71-7.48,2.5h72.96l.58-.58c1.93-1.93,3.02-4.55,3.02-7.28v-47.27c0-1.37-.54-2.67-1.51-3.64Z"/>
    <path d="M625.9,880.32c3,.25,5.96-.85,8.09-2.98l86.01-86.01c1.93-1.93,3.02-4.55,3.02-7.28v-47.27c0-1.37-.54-2.67-1.51-3.64l-52.02-52.02c-2.71-2.71-7.09-2.71-9.79,0l-163.65,163.65c-2.71,2.71-2.71,7.09,0,9.8l24.68,24.68c1.93,1.93,4.55,3.02,7.29,3.02h17.98c2.73,0,5.35-1.09,7.28-3.02l89.75-89.75c2.12-2.12,3.23-5.07,2.98-8.07-.21-2.49.64-5.06,2.53-6.95,3.51-3.5,9.24-3.43,12.65.24,2.87,3.09,3.12,7.92.56,11.28-1.93,2.53-4.91,3.68-7.79,3.43-2.98-.27-5.9.88-8.02,2.99l-89.74,89.74c-1.93,1.93-3.02,4.55-3.02,7.28v17.98c0,2.73,1.09,5.35,3.02,7.28l43.15,43.15c1.93,1.93,4.55,3.02,7.29,3.02h18.43c2.73,0,5.35-1.09,7.28-3.02l89.52-89.52c2.12-2.12,3.23-5.07,2.98-8.07-.21-2.49.64-5.06,2.53-6.95,3.51-3.51,9.24-3.43,12.65.24,2.87,3.09,3.12,7.92.56,11.28-1.93,2.53-4.91,3.68-7.79,3.43-2.98-.27-5.9.88-8.02,2.99l-89.51,89.51c-1.93,1.93-3.02,4.55-3.02,7.28v.98s86.45,0,86.45,0l114.46-114.46c2.7-2.7,2.7-7.09,0-9.79l-52.02-52.02c-.97-.97-2.28-1.51-3.64-1.51h-47.27c-2.73,0-5.35,1.08-7.28,3.01l-86.01,86.01c-2.13,2.13-3.23,5.09-2.98,8.09.21,2.48-.64,5.04-2.54,6.93-3.4,3.4-8.99,3.43-12.42,0s-3.4-9.02,0-12.42c1.9-1.9,4.45-2.74,6.93-2.54Z"/>
    <path d="M600.37,968.32h-47.27c-1.26,0-2.5.24-3.66.68h53.44c-.76-.43-1.62-.68-2.51-.68Z"/>
    <path d="M625.9,526.12c3,.25,5.96-.85,8.09-2.98l86.01-86.01c1.93-1.93,3.02-4.55,3.02-7.28v-47.27c0-1.37-.54-2.67-1.51-3.64l-52.02-52.02c-2.71-2.71-7.09-2.71-9.79,0l-163.65,163.65c-2.71,2.71-2.71,7.09,0,9.8l24.68,24.68c1.93,1.93,4.55,3.02,7.29,3.02h17.98c2.73,0,5.35-1.09,7.28-3.02l89.75-89.75c2.12-2.12,3.23-5.07,2.98-8.07-.21-2.49.64-5.06,2.53-6.95,3.51-3.5,9.24-3.43,12.65.24,2.87,3.09,3.12,7.92.56,11.28-1.93,2.53-4.91,3.68-7.79,3.43-2.98-.27-5.9.88-8.02,2.99l-89.74,89.74c-1.93,1.93-3.02,4.55-3.02,7.28v17.98c0,2.73,1.09,5.35,3.02,7.28l43.15,43.15c1.93,1.93,4.55,3.02,7.29,3.02h18.43c2.73,0,5.35-1.09,7.28-3.02l89.52-89.52c2.12-2.12,3.23-5.07,2.98-8.07-.21-2.49.64-5.06,2.53-6.95,3.51-3.51,9.24-3.43,12.65.24,2.87,3.09,3.12,7.92.56,11.28-1.93,2.53-4.91,3.68-7.79,3.43-2.98-.27-5.9.88-8.02,2.99l-89.51,89.51c-1.93,1.93-3.02,4.55-3.02,7.28v18.44c0,2.73,1.08,5.35,3.01,7.29l24.45,24.45c2.71,2.71,7.09,2.71,9.8,0l163.65-163.65c2.7-2.7,2.7-7.09,0-9.79l-52.02-52.02c-.97-.97-2.28-1.51-3.64-1.51h-47.27c-2.73,0-5.35,1.08-7.28,3.01l-86.01,86.01c-2.13,2.13-3.23,5.09-2.98,8.09.21,2.48-.64,5.04-2.54,6.93-3.4,3.4-8.99,3.43-12.42,0-3.43-3.43-3.4-9.02,0-12.42,1.9-1.9,4.45-2.74,6.93-2.54Z"/>
    <path d="M1441.68,705.03c-1.93,1.93-3.02,4.55-3.02,7.28v17.98c0,2.73,1.09,5.35,3.02,7.28l43.15,43.15c1.93,1.93,4.55,3.02,7.29,3.02h18.43c2.73,0,5.35-1.09,7.28-3.02l18.18-18.18v-73l-13.6,13.6c-2.13,2.13-3.23,5.09-2.98,8.09.21,2.48-.64,5.04-2.54,6.93-3.4,3.4-8.99,3.43-12.42,0-3.43-3.43-3.4-9.02,0-12.42,1.9-1.9,4.45-2.74,6.93-2.54,3,.25,5.96-.85,8.09-2.98l16.51-16.51v-71.1c-1.71.47-3.3,1.39-4.58,2.67l-89.74,89.74Z"/>
    <path d="M201.49,691.13c-2.98-.27-5.9.88-8.02,2.99l-89.51,89.51c-1.93,1.93-3.02,4.55-3.02,7.28v18.44c0,2.73,1.08,5.35,3.01,7.29l24.45,24.45c2.71,2.71,7.09,2.71,9.8,0l163.65-163.65c2.7-2.7,2.7-7.09,0-9.79l-52.02-52.02c-.97-.97-2.28-1.51-3.64-1.51h-47.27c-2.73,0-5.35,1.08-7.28,3.01l-86.01,86.01c-2.13,2.13-3.23,5.09-2.98,8.09.21,2.48-.64,5.04-2.54,6.93-3.4,3.4-8.99,3.43-12.42,0s-3.4-9.02,0-12.42c1.9-1.9,4.45-2.74,6.93-2.54,3,.25,5.96-.85,8.09-2.98l86.01-86.01c1.93-1.93,3.02-4.55,3.02-7.28v-47.27c0-1.37-.54-2.67-1.51-3.64l-52.02-52.02c-2.71-2.71-7.09-2.71-9.79,0L0,632.41v72.73h14.69c2.73,0,5.35-1.09,7.28-3.02l89.75-89.75c2.12-2.12,3.23-5.07,2.98-8.07-.21-2.49.64-5.06,2.53-6.95,3.5-3.5,9.24-3.43,12.65.24,2.87,3.09,3.12,7.92.56,11.28-1.93,2.53-4.91,3.68-7.79,3.43-2.98-.27-5.9.88-8.02,2.99l-89.74,89.74c-1.93,1.93-3.02,4.55-3.02,7.28v17.98c0,2.73,1.09,5.35,3.02,7.28l43.15,43.15c1.93,1.93,4.55,3.02,7.29,3.02h18.43c2.73,0,5.35-1.09,7.28-3.02l89.52-89.52c2.12-2.12,3.23-5.07,2.98-8.07-.21-2.49.64-5.06,2.53-6.95,3.51-3.51,9.24-3.43,12.65.24,2.87,3.09,3.12,7.92.56,11.28-1.93,2.53-4.91,3.68-7.79,3.43Z"/>
    <path d="M1085.24,0c-.51,1.23-.78,2.56-.78,3.92v17.98c0,2.73,1.09,5.35,3.02,7.28l43.15,43.15c1.93,1.93,4.55,3.02,7.29,3.02h18.43c2.73,0,5.35-1.09,7.28-3.02L1235.96,0h-70.56c-.19.93-.26,1.88-.18,2.85.21,2.48-.64,5.04-2.54,6.93-3.4,3.4-8.99,3.43-12.42,0-2.64-2.64-3.22-6.56-1.8-9.78h-63.23Z"/>
    <path d="M980.1,526.12c3,.25,5.96-.85,8.09-2.98l86.01-86.01c1.93-1.93,3.02-4.55,3.02-7.28v-47.27c0-1.37-.54-2.67-1.51-3.64l-52.02-52.02c-2.71-2.71-7.09-2.71-9.79,0l-163.65,163.65c-2.71,2.71-2.71,7.09,0,9.8l24.68,24.68c1.93,1.93,4.55,3.02,7.29,3.02h17.98c2.73,0,5.35-1.09,7.28-3.02l89.75-89.75c2.12-2.12,3.23-5.07,2.98-8.07-.21-2.49.64-5.06,2.53-6.95,3.5-3.5,9.24-3.43,12.65.24,2.87,3.09,3.12,7.92.56,11.28-1.93,2.53-4.91,3.68-7.79,3.43-2.97-.27-5.9.88-8.02,2.99l-89.74,89.74c-1.93,1.93-3.02,4.55-3.02,7.28v17.98c0,2.73,1.09,5.35,3.02,7.28l43.15,43.15c1.93,1.93,4.55,3.02,7.29,3.02h18.43c2.73,0,5.35-1.09,7.28-3.02l89.52-89.52c2.12-2.12,3.23-5.07,2.98-8.07-.21-2.49.64-5.06,2.53-6.95,3.5-3.51,9.24-3.43,12.65.24,2.87,3.09,3.12,7.92.56,11.28-1.93,2.53-4.91,3.68-7.79,3.43-2.97-.27-5.9.88-8.02,2.99l-89.51,89.51c-1.93,1.93-3.02,4.55-3.02,7.28v18.44c0,2.73,1.08,5.35,3.01,7.29l24.45,24.45c2.71,2.71,7.09,2.71,9.8,0l163.65-163.65c2.7-2.7,2.7-7.09,0-9.79l-52.02-52.02c-.97-.97-2.28-1.51-3.64-1.51h-47.27c-2.73,0-5.35,1.08-7.28,3.01l-86.01,86.01c-2.13,2.13-3.23,5.09-2.98,8.09.21,2.48-.64,5.04-2.54,6.93-3.4,3.4-8.99,3.43-12.42,0s-3.4-9.02,0-12.42c1.9-1.9,4.45-2.74,6.93-2.54Z"/>
    <path d="M1157.2,703.22c3,.25,5.96-.85,8.09-2.98l86.01-86.01c1.93-1.93,3.02-4.55,3.02-7.28v-47.27c0-1.37-.54-2.67-1.51-3.64l-52.02-52.02c-2.71-2.71-7.09-2.71-9.79,0l-163.65,163.65c-2.71,2.71-2.71,7.09,0,9.8l24.68,24.67c1.93,1.93,4.55,3.02,7.28,3.02h17.98c2.73,0,5.35-1.09,7.28-3.02l89.75-89.75c2.12-2.12,3.23-5.07,2.98-8.07-.21-2.49.64-5.06,2.53-6.95,3.5-3.5,9.24-3.43,12.65.24,2.87,3.09,3.12,7.92.56,11.28-1.93,2.53-4.91,3.68-7.79,3.43-2.97-.27-5.9.88-8.02,2.99l-89.74,89.74c-1.93,1.93-3.02,4.55-3.02,7.28v17.98c0,2.73,1.09,5.35,3.02,7.28l43.15,43.15c1.93,1.93,4.55,3.02,7.29,3.02h18.43c2.73,0,5.35-1.09,7.28-3.02l89.52-89.52c2.12-2.12,3.23-5.07,2.98-8.07-.21-2.49.64-5.06,2.53-6.95,3.51-3.51,9.24-3.43,12.65.24,2.87,3.09,3.12,7.92.56,11.28-1.93,2.53-4.91,3.68-7.79,3.43-2.98-.27-5.9.88-8.02,2.99l-89.51,89.51c-1.93,1.93-3.02,4.55-3.02,7.28v18.44c0,2.73,1.08,5.35,3.01,7.29l24.45,24.45c2.71,2.71,7.09,2.71,9.8,0l163.65-163.65c2.7-2.7,2.7-7.09,0-9.79l-52.02-52.02c-.97-.97-2.28-1.51-3.64-1.51h-47.27c-2.73,0-5.35,1.08-7.28,3.01l-86.01,86.01c-2.13,2.13-3.23,5.09-2.98,8.09.21,2.48-.64,5.04-2.54,6.93-3.4,3.4-8.99,3.43-12.42,0-3.43-3.43-3.4-9.02,0-12.42,1.9-1.9,4.45-2.74,6.93-2.54Z"/>
    <path d="M1439.44,0c-.51,1.23-.78,2.56-.78,3.92v17.98c0,2.73,1.09,5.35,3.02,7.28l43.15,43.15c1.93,1.93,4.55,3.02,7.29,3.02h18.43c2.73,0,5.35-1.09,7.28-3.02l18.18-18.18V0h-16.4c-.19.93-.26,1.88-.18,2.85.21,2.48-.64,5.04-2.54,6.93-3.4,3.4-8.99,3.43-12.42,0-2.64-2.64-3.22-6.56-1.8-9.78h-63.23Z"/>
    <path d="M1157.2,349.02c3,.25,5.96-.85,8.09-2.98l86.01-86.01c1.93-1.93,3.02-4.55,3.02-7.28v-47.27c0-1.37-.54-2.67-1.51-3.64l-52.02-52.02c-2.71-2.71-7.09-2.71-9.79,0l-163.65,163.65c-2.71,2.71-2.71,7.09,0,9.8l24.68,24.68c1.93,1.93,4.55,3.02,7.28,3.02h17.98c2.73,0,5.35-1.09,7.28-3.02l89.75-89.75c2.12-2.12,3.23-5.07,2.98-8.07-.21-2.49.64-5.06,2.53-6.95,3.5-3.51,9.24-3.43,12.65.24,2.87,3.09,3.12,7.92.56,11.28-1.93,2.53-4.91,3.68-7.79,3.43-2.97-.27-5.9.88-8.02,2.99l-89.74,89.74c-1.93,1.93-3.02,4.55-3.02,7.28v17.98c0,2.73,1.09,5.35,3.02,7.28l43.15,43.15c1.93,1.93,4.55,3.02,7.29,3.02h18.43c2.73,0,5.35-1.09,7.28-3.02l89.52-89.52c2.12-2.12,3.23-5.07,2.98-8.07-.21-2.49.64-5.06,2.53-6.95,3.51-3.51,9.24-3.43,12.65.24,2.87,3.09,3.12,7.92.56,11.28-1.93,2.53-4.91,3.68-7.79,3.43-2.98-.27-5.9.88-8.02,2.99l-89.51,89.51c-1.93,1.93-3.02,4.55-3.02,7.28v18.44c0,2.73,1.08,5.35,3.01,7.29l24.45,24.45c2.71,2.71,7.09,2.71,9.8,0l163.65-163.65c2.7-2.7,2.7-7.09,0-9.79l-52.02-52.02c-.97-.97-2.28-1.51-3.64-1.51h-47.27c-2.73,0-5.35,1.08-7.28,3.01l-86.01,86.01c-2.13,2.13-3.23,5.09-2.98,8.09.21,2.48-.64,5.04-2.54,6.93-3.4,3.4-8.99,3.43-12.42,0-3.43-3.43-3.4-9.02,0-12.42,1.9-1.9,4.45-2.74,6.93-2.54Z"/>
    <path d="M378.58,514.04c-2.98-.27-5.9.88-8.02,2.99l-89.51,89.51c-1.93,1.93-3.02,4.55-3.02,7.28v18.44c0,2.73,1.08,5.35,3.01,7.29l24.45,24.45c2.71,2.71,7.09,2.71,9.8,0l163.65-163.65c2.7-2.7,2.7-7.09,0-9.79l-52.02-52.02c-.97-.97-2.28-1.51-3.64-1.51h-47.27c-2.73,0-5.35,1.08-7.28,3.01l-86.01,86.01c-2.13,2.13-3.23,5.09-2.98,8.09.21,2.48-.64,5.04-2.54,6.93-3.4,3.4-8.99,3.43-12.42,0s-3.4-9.02,0-12.42c1.9-1.9,4.45-2.74,6.93-2.54,3,.25,5.96-.85,8.09-2.98l86.01-86.01c1.93-1.93,3.02-4.55,3.02-7.28v-47.27c0-1.37-.54-2.67-1.51-3.64l-52.02-52.02c-2.71-2.71-7.09-2.71-9.79,0l-163.65,163.65c-2.71,2.71-2.71,7.09,0,9.8l24.68,24.68c1.93,1.93,4.55,3.02,7.29,3.02h17.98c2.73,0,5.35-1.09,7.28-3.02l89.75-89.75c2.12-2.12,3.23-5.07,2.98-8.07-.21-2.49.64-5.06,2.53-6.95,3.5-3.5,9.24-3.43,12.65.24,2.87,3.09,3.12,7.92.56,11.28-1.93,2.53-4.91,3.68-7.79,3.43-2.97-.27-5.9.88-8.02,2.99l-89.74,89.74c-1.93,1.93-3.02,4.55-3.02,7.28v17.98c0,2.73,1.09,5.35,3.02,7.28l43.15,43.15c1.93,1.93,4.55,3.02,7.29,3.02h18.43c2.73,0,5.35-1.09,7.28-3.02l89.52-89.52c2.12-2.12,3.23-5.07,2.98-8.07-.21-2.49.64-5.06,2.53-6.95,3.51-3.51,9.24-3.43,12.65.24,2.87,3.09,3.12,7.92.56,11.28-1.93,2.53-4.91,3.68-7.79,3.43Z"/>
    <path d="M1381.54,677.45l24.68,24.67c1.93,1.93,4.55,3.02,7.28,3.02h17.98c2.73,0,5.35-1.09,7.28-3.02l89.75-89.75c2.12-2.12,3.23-5.07,2.98-8.07-.21-2.49.64-5.06,2.53-6.95.6-.6,1.27-1.09,1.98-1.48v-82.69l-154.46,154.46c-2.71,2.71-2.71,7.09,0,9.8Z"/>
    <path d="M1368.09,681.1l-163.65,163.65c-2.71,2.71-2.71,7.09,0,9.8l24.68,24.68c1.93,1.93,4.55,3.02,7.29,3.02h17.98c2.73,0,5.35-1.09,7.28-3.02l89.75-89.75c2.12-2.12,3.23-5.07,2.98-8.07-.21-2.49.64-5.06,2.53-6.95,3.5-3.5,9.24-3.43,12.65.24,2.87,3.09,3.12,7.92.56,11.28-1.93,2.53-4.91,3.68-7.79,3.43-2.98-.27-5.9.88-8.02,2.99l-89.74,89.74c-1.93,1.93-3.02,4.55-3.02,7.28v17.98c0,2.73,1.09,5.35,3.02,7.28l43.15,43.15c1.93,1.93,4.55,3.02,7.28,3.02h18.43c2.73,0,5.35-1.09,7.28-3.02l89.52-89.52c2.12-2.12,3.23-5.07,2.98-8.07-.21-2.49.64-5.06,2.53-6.95,3.51-3.51,9.24-3.43,12.65.24,2.87,3.09,3.12,7.92.56,11.28-1.93,2.53-4.91,3.68-7.79,3.43-2.97-.27-5.9.88-8.02,2.99l-89.51,89.51c-1.93,1.93-3.02,4.55-3.02,7.28v.98s86.45,0,86.45,0l108.93-108.93v-20.85l-46.49-46.49c-.97-.97-2.28-1.51-3.64-1.51h-47.27c-2.73,0-5.35,1.08-7.28,3.01l-86.01,86.01c-2.13,2.13-3.23,5.09-2.98,8.09.21,2.48-.64,5.04-2.54,6.93-3.4,3.4-8.99,3.43-12.42,0-3.43-3.43-3.4-9.02,0-12.42,1.9-1.9,4.45-2.74,6.93-2.54,3,.25,5.96-.85,8.09-2.98l86.01-86.01c1.93-1.93,3.02-4.55,3.02-7.28v-47.27c0-1.37-.54-2.67-1.51-3.64l-52.02-52.02c-2.71-2.71-7.09-2.71-9.79,0Z"/>
    <path d="M803,349.02c3,.25,5.96-.85,8.09-2.98l86.01-86.01c1.93-1.93,3.02-4.55,3.02-7.28v-47.27c0-1.37-.54-2.67-1.51-3.64l-52.02-52.02c-2.71-2.71-7.09-2.71-9.79,0l-163.65,163.65c-2.71,2.71-2.71,7.09,0,9.8l24.68,24.68c1.93,1.93,4.55,3.02,7.29,3.02h17.98c2.73,0,5.35-1.09,7.28-3.02l89.75-89.75c2.12-2.12,3.23-5.07,2.98-8.07-.21-2.49.64-5.06,2.53-6.95,3.5-3.51,9.24-3.43,12.65.24,2.87,3.09,3.12,7.92.56,11.28-1.93,2.53-4.91,3.68-7.79,3.43-2.97-.27-5.9.88-8.02,2.99l-89.74,89.74c-1.93,1.93-3.02,4.55-3.02,7.28v17.98c0,2.73,1.09,5.35,3.02,7.28l43.15,43.15c1.93,1.93,4.55,3.02,7.29,3.02h18.43c2.73,0,5.35-1.09,7.28-3.02l89.52-89.52c2.12-2.12,3.23-5.07,2.98-8.07-.21-2.49.64-5.06,2.53-6.95,3.51-3.51,9.24-3.43,12.65.24,2.87,3.09,3.12,7.92.56,11.28-1.93,2.53-4.91,3.68-7.79,3.43-2.97-.27-5.9.88-8.02,2.99l-89.51,89.51c-1.93,1.93-3.02,4.55-3.02,7.28v18.44c0,2.73,1.08,5.35,3.01,7.29l24.45,24.45c2.71,2.71,7.09,2.71,9.8,0l163.65-163.65c2.7-2.7,2.7-7.09,0-9.79l-52.02-52.02c-.97-.97-2.28-1.51-3.64-1.51h-47.27c-2.73,0-5.35,1.08-7.28,3.01l-86.01,86.01c-2.13,2.13-3.23,5.09-2.98,8.09.21,2.48-.64,5.04-2.54,6.93-3.4,3.4-8.99,3.43-12.42,0s-3.4-9.02,0-12.42c1.9-1.9,4.45-2.74,6.93-2.54Z"/>
    <path d="M1517.73,436.72v18.44c0,2.73,1.08,5.35,3.01,7.29l15.26,15.26v-63.52l-15.26,15.26c-1.93,1.93-3.02,4.55-3.02,7.28Z"/>
    <path d="M833.14,136.36l-52.02-52.02c-.97-.97-2.28-1.51-3.64-1.51h-47.27c-2.73,0-5.35,1.08-7.28,3.01l-86.01,86.01c-2.13,2.13-3.23,5.09-2.98,8.09.21,2.48-.64,5.04-2.54,6.93-3.4,3.4-8.99,3.43-12.42,0s-3.4-9.02,0-12.42c1.9-1.9,4.45-2.74,6.93-2.54,3,.25,5.96-.85,8.09-2.98l86.01-86.01c1.93-1.93,3.02-4.55,3.02-7.28V28.38c0-1.37-.54-2.67-1.51-3.64l-24.73-24.73h-64.37l-136.36,136.36c-2.71,2.71-2.71,7.09,0,9.8l24.68,24.68c1.93,1.93,4.55,3.02,7.29,3.02h17.98c2.73,0,5.35-1.09,7.28-3.02l89.75-89.75c2.12-2.12,3.23-5.07,2.98-8.07-.21-2.49.64-5.06,2.53-6.95,3.51-3.5,9.24-3.43,12.65.24,2.87,3.09,3.12,7.92.56,11.28-1.93,2.53-4.91,3.68-7.79,3.43-2.98-.27-5.9.88-8.02,2.99l-89.74,89.74c-1.93,1.93-3.02,4.55-3.02,7.28v17.98c0,2.73,1.09,5.35,3.02,7.28l43.15,43.15c1.93,1.93,4.55,3.02,7.29,3.02h18.43c2.73,0,5.35-1.09,7.28-3.02l89.52-89.52c2.12-2.12,3.23-5.07,2.98-8.07-.21-2.49.64-5.06,2.53-6.95,3.51-3.51,9.24-3.43,12.65.24,2.87,3.09,3.12,7.92.56,11.28-1.93,2.53-4.91,3.68-7.79,3.43-2.98-.27-5.9.88-8.02,2.99l-89.51,89.51c-1.93,1.93-3.02,4.55-3.02,7.28v18.44c0,2.73,1.08,5.35,3.01,7.29l24.45,24.45c2.71,2.71,7.09,2.71,9.8,0l163.65-163.65c2.7-2.7,2.7-7.09,0-9.79Z"/>
    <path d="M1536,831.9v-63.52l-15.26,15.26c-1.93,1.93-3.02,4.55-3.02,7.28v18.44c0,2.73,1.08,5.35,3.01,7.29l15.26,15.26Z"/>
    <path d="M138.2,132.7L270.89,0h-91.69l-75.24,75.24c-1.93,1.93-3.02,4.55-3.02,7.28v18.44c0,2.73,1.08,5.35,3.01,7.29l24.45,24.45c2.71,2.71,7.09,2.71,9.8,0Z"/>
    <path d="M1187.33,136.36l-52.02-52.02c-.97-.97-2.28-1.51-3.64-1.51h-47.27c-2.73,0-5.35,1.08-7.28,3.01l-86.01,86.01c-2.13,2.13-3.23,5.09-2.98,8.09.21,2.48-.64,5.04-2.54,6.93-3.4,3.4-8.99,3.43-12.42,0-3.43-3.43-3.4-9.02,0-12.42,1.9-1.9,4.45-2.74,6.93-2.54,3,.25,5.96-.85,8.09-2.98l86.01-86.01c1.93-1.93,3.02-4.55,3.02-7.28V28.38c0-1.37-.54-2.67-1.51-3.64l-24.73-24.73h-64.37l-136.36,136.36c-2.71,2.71-2.71,7.09,0,9.8l24.68,24.68c1.93,1.93,4.55,3.02,7.29,3.02h17.98c2.73,0,5.35-1.09,7.28-3.02l89.75-89.75c2.12-2.12,3.23-5.07,2.98-8.07-.21-2.49.64-5.06,2.53-6.95,3.5-3.5,9.24-3.43,12.65.24,2.87,3.09,3.12,7.92.56,11.28-1.93,2.53-4.91,3.68-7.79,3.43-2.97-.27-5.9.88-8.02,2.99l-89.74,89.74c-1.93,1.93-3.02,4.55-3.02,7.28v17.98c0,2.73,1.09,5.35,3.02,7.28l43.15,43.15c1.93,1.93,4.55,3.02,7.29,3.02h18.43c2.73,0,5.35-1.09,7.28-3.02l89.52-89.52c2.12-2.12,3.23-5.07,2.98-8.07-.21-2.49.64-5.06,2.53-6.95,3.5-3.51,9.24-3.43,12.65.24,2.87,3.09,3.12,7.92.56,11.28-1.93,2.53-4.91,3.68-7.79,3.43-2.97-.27-5.9.88-8.02,2.99l-89.51,89.51c-1.93,1.93-3.02,4.55-3.02,7.28v18.44c0,2.73,1.08,5.35,3.01,7.29l24.45,24.45c2.71,2.71,7.09,2.71,9.8,0l163.65-163.65c2.7-2.7,2.7-7.09,0-9.79Z"/>
    <path d="M1381.54,323.25l24.68,24.68c1.93,1.93,4.55,3.02,7.28,3.02h17.98c2.73,0,5.35-1.09,7.28-3.02l89.75-89.75c2.12-2.12,3.23-5.07,2.98-8.07-.21-2.49.64-5.06,2.53-6.95.6-.6,1.27-1.09,1.98-1.48v-82.69l-154.46,154.46c-2.71,2.71-2.71,7.09,0,9.8Z"/>
    <path d="M1528.51,966.57c2.12-2.12,3.23-5.07,2.98-8.07-.21-2.49.64-5.06,2.53-6.95.6-.6,1.27-1.09,1.98-1.48v-82.69l-101.61,101.61h91.69l2.43-2.43Z"/>
    <path d="M1511.39,349.02c3,.25,5.96-.85,8.09-2.98l16.51-16.51v-71.1c-1.71.47-3.3,1.39-4.58,2.67l-89.74,89.74c-1.93,1.93-3.02,4.55-3.02,7.28v17.98c0,2.73,1.09,5.35,3.02,7.28l43.15,43.15c1.93,1.93,4.55,3.02,7.29,3.02h18.43c2.73,0,5.35-1.09,7.28-3.02l18.18-18.18v-73l-13.6,13.6c-2.13,2.13-3.23,5.09-2.98,8.09.21,2.48-.64,5.04-2.54,6.93-3.4,3.4-8.99,3.43-12.42,0-3.43-3.43-3.4-9.02,0-12.42,1.9-1.9,4.45-2.74,6.93-2.54Z"/>
    <path d="M14.63,784.04v-47.27c0-1.37-.54-2.67-1.51-3.64l-13.12-13.12v82.93l11.61-11.61c1.93-1.93,3.02-4.55,3.02-7.28Z"/>
    <path d="M109.29,969l2.43-2.43c2.12-2.12,3.23-5.07,2.98-8.07-.21-2.49.64-5.06,2.53-6.95,3.5-3.5,9.24-3.43,12.65.24,2.87,3.09,3.12,7.92.56,11.28-1.93,2.53-4.91,3.68-7.79,3.43-2.73-.24-5.42.71-7.48,2.5h72.96l.58-.58c1.93-1.93,3.02-4.55,3.02-7.28v-47.27c0-1.37-.54-2.67-1.51-3.64l-52.02-52.02c-2.71-2.71-7.09-2.71-9.79,0l-110.8,110.8h91.69Z"/>
    <path d="M1536,966.82c-1.48.41-2.86,1.16-4.04,2.18h4.04v-2.18Z"/>
    <path d="M1517.73,82.53v18.44c0,2.73,1.08,5.35,3.01,7.29l15.26,15.26v-63.52l-15.26,15.26c-1.93,1.93-3.02,4.55-3.02,7.28Z"/>
    <path d="M1204.45,136.36c-2.71,2.71-2.71,7.09,0,9.8l24.68,24.68c1.93,1.93,4.55,3.02,7.29,3.02h17.98c2.73,0,5.35-1.09,7.28-3.02l89.75-89.75c2.12-2.12,3.23-5.07,2.98-8.07-.21-2.49.64-5.06,2.53-6.95,3.5-3.5,9.24-3.43,12.65.24,2.87,3.09,3.12,7.92.56,11.28-1.93,2.53-4.91,3.68-7.79,3.43-2.98-.27-5.9.88-8.02,2.99l-89.74,89.74c-1.93,1.93-3.02,4.55-3.02,7.28v17.98c0,2.73,1.09,5.35,3.02,7.28l43.15,43.15c1.93,1.93,4.55,3.02,7.28,3.02h18.43c2.73,0,5.35-1.09,7.28-3.02l89.52-89.52c2.12-2.12,3.23-5.07,2.98-8.07-.21-2.49.64-5.06,2.53-6.95,3.51-3.51,9.24-3.43,12.65.24,2.87,3.09,3.12,7.92.56,11.28-1.93,2.53-4.91,3.68-7.79,3.43-2.97-.27-5.9.88-8.02,2.99l-89.51,89.51c-1.93,1.93-3.02,4.55-3.02,7.28v18.44c0,2.73,1.08,5.35,3.01,7.29l24.45,24.45c2.71,2.71,7.09,2.71,9.8,0l158.12-158.12v-20.85l-46.49-46.49c-.97-.97-2.28-1.51-3.64-1.51h-47.27c-2.73,0-5.35,1.08-7.28,3.01l-86.01,86.01c-2.13,2.13-3.23,5.09-2.98,8.09.21,2.48-.64,5.04-2.54,6.93-3.4,3.4-8.99,3.43-12.42,0-3.43-3.43-3.4-9.02,0-12.42,1.9-1.9,4.45-2.74,6.93-2.54,3,.25,5.96-.85,8.09-2.98l86.01-86.01c1.93-1.93,3.02-4.55,3.02-7.28V28.38c0-1.37-.54-2.67-1.51-3.64l-24.73-24.73h-64.37l-136.36,136.36Z"/>
    <path d="M24.39,868.23c-2.98-.27-5.9.88-8.02,2.99l-16.37,16.37v81.41h10.29l114.46-114.46c2.7-2.7,2.7-7.09,0-9.79l-52.02-52.02c-.97-.97-2.28-1.51-3.64-1.51H21.81c-2.73,0-5.35,1.08-7.28,3.01l-14.53,14.53v73l13.46-13.46c2.12-2.12,3.23-5.07,2.98-8.07-.21-2.49.64-5.06,2.53-6.95,3.51-3.51,9.24-3.43,12.65.24,2.87,3.09,3.12,7.92.56,11.28-1.93,2.53-4.91,3.68-7.79,3.43Z"/>
    <path d="M1368.09,326.91l-163.65,163.65c-2.71,2.71-2.71,7.09,0,9.8l24.68,24.68c1.93,1.93,4.55,3.02,7.29,3.02h17.98c2.73,0,5.35-1.09,7.28-3.02l89.75-89.75c2.12-2.12,3.23-5.07,2.98-8.07-.21-2.49.64-5.06,2.53-6.95,3.5-3.5,9.24-3.43,12.65.24,2.87,3.09,3.12,7.92.56,11.28-1.93,2.53-4.91,3.68-7.79,3.43-2.98-.27-5.9.88-8.02,2.99l-89.74,89.74c-1.93,1.93-3.02,4.55-3.02,7.28v17.98c0,2.73,1.09,5.35,3.02,7.28l43.15,43.15c1.93,1.93,4.55,3.02,7.28,3.02h18.43c2.73,0,5.35-1.09,7.28-3.02l89.52-89.52c2.12-2.12,3.23-5.07,2.98-8.07-.21-2.49.64-5.06,2.53-6.95,3.51-3.51,9.24-3.43,12.65.24,2.87,3.09,3.12,7.92.56,11.28-1.93,2.53-4.91,3.68-7.79,3.43-2.97-.27-5.9.88-8.02,2.99l-89.51,89.51c-1.93,1.93-3.02,4.55-3.02,7.28v18.44c0,2.73,1.08,5.35,3.01,7.29l24.45,24.45c2.71,2.71,7.09,2.71,9.8,0l158.12-158.12v-20.85l-46.49-46.49c-.97-.97-2.28-1.51-3.64-1.51h-47.27c-2.73,0-5.35,1.08-7.28,3.01l-86.01,86.01c-2.13,2.13-3.23,5.09-2.98,8.09.21,2.48-.64,5.04-2.54,6.93-3.4,3.4-8.99,3.43-12.42,0s-3.4-9.02,0-12.42c1.9-1.9,4.45-2.74,6.93-2.54,3,.25,5.96-.85,8.09-2.98l86.01-86.01c1.93-1.93,3.02-4.55,3.02-7.28v-47.27c0-1.37-.54-2.67-1.51-3.64l-52.02-52.02c-2.71-2.71-7.09-2.71-9.79,0Z"/>
    <path d="M1241.79,0l-75.24,75.24c-1.93,1.93-3.02,4.55-3.02,7.28v18.44c0,2.73,1.08,5.35,3.01,7.29l24.45,24.45c2.71,2.71,7.09,2.71,9.8,0L1333.48,0h-91.69Z"/>
    <path d="M1252.81,910.23l-52.02-52.02c-2.71-2.71-7.09-2.71-9.79,0l-110.8,110.8h91.69l2.43-2.43c2.12-2.12,3.23-5.07,2.98-8.07-.21-2.49.64-5.06,2.53-6.95,3.5-3.5,9.24-3.43,12.65.24,2.87,3.09,3.12,7.92.56,11.28-1.93,2.53-4.91,3.68-7.79,3.43-2.73-.24-5.42.71-7.48,2.5h72.96l.58-.58c1.93-1.93,3.02-4.55,3.02-7.28v-47.27c0-1.37-.54-2.67-1.51-3.64Z"/>
    <path d="M463.49,969l2.43-2.43c2.12-2.12,3.23-5.07,2.98-8.07-.21-2.49.64-5.06,2.53-6.95,3.5-3.5,9.24-3.43,12.65.24,2.87,3.09,3.12,7.92.56,11.28-1.93,2.53-4.91,3.68-7.79,3.43-2.73-.24-5.42.71-7.48,2.5h72.96l.58-.58c1.93-1.93,3.02-4.55,3.02-7.28v-47.27c0-1.37-.54-2.67-1.51-3.64l-52.02-52.02c-2.71-2.71-7.09-2.71-9.79,0l-110.8,110.8h91.69Z"/>
    <path d="M1308.77,968.32h-47.27c-1.26,0-2.5.24-3.66.68h53.44c-.76-.43-1.62-.68-2.51-.68Z"/>
    <path d="M21.87,21.9c0,2.73,1.09,5.35,3.02,7.28l43.15,43.15c1.93,1.93,4.55,3.02,7.29,3.02h18.43c2.73,0,5.35-1.09,7.28-3.02L173.37,0h-70.56c-.19.93-.26,1.88-.18,2.85.21,2.48-.64,5.04-2.54,6.93-3.4,3.4-8.99,3.43-12.42,0-2.64-2.64-3.22-6.56-1.8-9.78H22.65c-.51,1.23-.78,2.56-.78,3.92v17.98Z"/>
    <path d="M881.77,0h-70.56c-.19.93-.26,1.88-.18,2.85.21,2.48-.64,5.04-2.54,6.93-3.4,3.4-8.99,3.43-12.42,0-2.64-2.64-3.22-6.56-1.8-9.78h-63.23c-.51,1.23-.78,2.56-.78,3.92v17.98c0,2.73,1.09,5.35,3.02,7.28l43.15,43.15c1.93,1.93,4.55,3.02,7.29,3.02h18.43c2.73,0,5.35-1.09,7.28-3.02L881.77,0Z"/>
    <path d="M379.09,29.19l43.15,43.15c1.93,1.93,4.55,3.02,7.28,3.02h18.43c2.73,0,5.35-1.09,7.28-3.02L527.57,0h-70.56c-.19.93-.26,1.88-.18,2.85.21,2.48-.64,5.04-2.54,6.93-3.4,3.4-8.99,3.43-12.42,0-2.64-2.64-3.22-6.56-1.8-9.78h-63.23c-.51,1.23-.78,2.56-.78,3.92v17.98c0,2.73,1.09,5.35,3.02,7.28Z"/>
    <path d="M482.6,132.7c2.71,2.71,7.09,2.71,9.8,0L625.09,0h-91.69l-75.24,75.24c-1.93,1.93-3.02,4.55-3.02,7.28v18.44c0,2.73,1.08,5.35,3.01,7.29l24.45,24.45Z"/>
    <path d="M246.18,968.32h-47.27c-1.26,0-2.5.24-3.66.68h53.44c-.76-.43-1.62-.68-2.51-.68Z"/>
    <path d="M138.2,486.89l163.65-163.65c2.7-2.7,2.7-7.09,0-9.79l-52.02-52.02c-.97-.97-2.28-1.51-3.64-1.51h-47.27c-2.73,0-5.35,1.08-7.28,3.01l-86.01,86.01c-2.13,2.13-3.23,5.09-2.98,8.09.21,2.48-.64,5.04-2.54,6.93-3.4,3.4-8.99,3.43-12.42,0-3.43-3.43-3.4-9.02,0-12.42,1.9-1.9,4.45-2.74,6.93-2.54,3,.25,5.96-.85,8.09-2.98l86.01-86.01c1.93-1.93,3.02-4.55,3.02-7.28v-47.27c0-1.37-.54-2.67-1.51-3.64l-52.02-52.02c-2.71-2.71-7.09-2.71-9.79,0L0,278.21v72.73h14.69c2.73,0,5.35-1.09,7.28-3.02l89.75-89.75c2.12-2.12,3.23-5.07,2.98-8.07-.21-2.49.64-5.06,2.53-6.95,3.5-3.51,9.24-3.43,12.65.24,2.87,3.09,3.12,7.92.56,11.28-1.93,2.53-4.91,3.68-7.79,3.43-2.98-.27-5.9.88-8.02,2.99l-89.74,89.74c-1.93,1.93-3.02,4.55-3.02,7.28v17.98c0,2.73,1.09,5.35,3.02,7.28l43.15,43.15c1.93,1.93,4.55,3.02,7.29,3.02h18.43c2.73,0,5.35-1.09,7.28-3.02l89.52-89.52c2.12-2.12,3.23-5.07,2.98-8.07-.21-2.49.64-5.06,2.53-6.95,3.51-3.51,9.24-3.43,12.65.24,2.87,3.09,3.12,7.92.56,11.28-1.93,2.53-4.91,3.68-7.79,3.43-2.98-.27-5.9.88-8.02,2.99l-89.51,89.51c-1.93,1.93-3.02,4.55-3.02,7.28v18.44c0,2.73,1.08,5.35,3.01,7.29l24.45,24.45c2.71,2.71,7.09,2.71,9.8,0Z"/>
    <path d="M141.86,854.55l24.68,24.68c1.93,1.93,4.55,3.02,7.29,3.02h17.98c2.73,0,5.35-1.09,7.28-3.02l89.75-89.75c2.12-2.12,3.23-5.07,2.98-8.07-.21-2.49.64-5.06,2.53-6.95,3.5-3.5,9.24-3.43,12.65.24,2.87,3.09,3.12,7.92.56,11.28-1.93,2.53-4.91,3.68-7.79,3.43-2.97-.27-5.9.88-8.02,2.99l-89.74,89.74c-1.93,1.93-3.02,4.55-3.02,7.28v17.98c0,2.73,1.09,5.35,3.02,7.28l43.15,43.15c1.93,1.93,4.55,3.02,7.29,3.02h18.43c2.73,0,5.35-1.09,7.28-3.02l89.52-89.52c2.12-2.12,3.23-5.07,2.98-8.07-.21-2.49.64-5.06,2.53-6.95,3.51-3.51,9.24-3.43,12.65.24,2.87,3.09,3.12,7.92.56,11.28-1.93,2.53-4.91,3.68-7.79,3.43-2.98-.27-5.9.88-8.02,2.99l-89.51,89.51c-1.93,1.93-3.02,4.55-3.02,7.28v.98s86.45,0,86.45,0l114.46-114.46c2.7-2.7,2.7-7.09,0-9.79l-52.02-52.02c-.97-.97-2.28-1.51-3.64-1.51h-47.27c-2.73,0-5.35,1.08-7.28,3.01l-86.01,86.01c-2.13,2.13-3.23,5.09-2.98,8.09.21,2.48-.64,5.04-2.54,6.93-3.4,3.4-8.99,3.43-12.42,0-3.43-3.43-3.4-9.02,0-12.42,1.9-1.9,4.45-2.74,6.93-2.54,3,.25,5.96-.85,8.09-2.98l86.01-86.01c1.93-1.93,3.02-4.55,3.02-7.28v-47.27c0-1.37-.54-2.67-1.51-3.64l-52.02-52.02c-2.71-2.71-7.09-2.71-9.79,0l-163.65,163.65c-2.71,2.71-2.71,7.09,0,9.8Z"/>
    <path d="M887.59,0l-75.24,75.24c-1.93,1.93-3.02,4.55-3.02,7.28v18.44c0,2.73,1.08,5.35,3.01,7.29l24.45,24.45c2.71,2.71,7.09,2.71,9.8,0L979.29,0h-91.69Z"/>
    <path d="M124.75,490.56l-52.02-52.02c-.97-.97-2.28-1.51-3.64-1.51H21.81c-2.73,0-5.35,1.08-7.28,3.01l-14.53,14.53v73l13.46-13.46c2.12-2.12,3.23-5.07,2.98-8.07-.21-2.49.64-5.06,2.53-6.95,3.51-3.51,9.24-3.43,12.65.24,2.87,3.09,3.12,7.92.56,11.28-1.93,2.53-4.91,3.68-7.79,3.43-2.98-.27-5.9.88-8.02,2.99l-16.37,16.37v91.69l124.75-124.75c2.7-2.7,2.7-7.09,0-9.79Z"/>
    <path d="M11.61,82.93c1.93-1.93,3.02-4.55,3.02-7.28V28.38c0-1.37-.54-2.67-1.51-3.64L0,11.62v82.93l11.61-11.61Z"/>
  </g>
</svg>