<?xml version="1.0" encoding="UTF-8"?>
<svg xmlns="http://www.w3.org/2000/svg" viewBox="315 178 875 112">
  <defs>
    <style>
      .cls-1 {
        fill: #ff4500;
      }
    </style>
  </defs>
  <g id="Layer_1" data-name="Layer 1">
    <g>
      <path class="cls-1" d="M777.5,211.5h-33v-33h-44v110h44v-49.5c0-3.04,2.46-5.5,5.5-5.5h0c3.04,0,5.5,2.46,5.5,5.5v49.5h44v-55c0-12.15-9.85-22-22-22Z"/>
      <path class="cls-1" d="M447.5,211.5h-132v77h44v-49.5c0-3.04,2.46-5.5,5.5-5.5h0c3.04,0,5.5,2.46,5.5,5.5v49.5h44v-49.5c0-3.04,2.46-5.5,5.5-5.5h0c3.04,0,5.5,2.46,5.5,5.5v49.5h44v-55c0-12.15-9.85-22-22-22Z"/>
      <path class="cls-1" d="M1135,233.5h49.5v-22h-77c-12.15,0-22,9.85-22,22s9.85,22,22,22h27.5c3.04,0,5.5,2.46,5.5,5.5s-2.46,5.5-5.5,5.5h-49.5v22h77c12.15,0,22-9.85,22-22h0c0-12.15-9.85-22-22-22h-27.5c-3.04,0-5.5-2.46-5.5-5.5s2.46-5.5,5.5-5.5Z"/>
      <rect class="cls-1" x="810.5" y="211.5" width="44" height="77"/>
      <path class="cls-1" d="M942.5,211.5h-77v77h44v-49.5c0-3.04,2.46-5.5,5.5-5.5h0c3.04,0,5.5,2.46,5.5,5.5v49.5h44v-55c0-12.15-9.85-22-22-22Z"/>
      <path class="cls-1" d="M667.5,211.5h-55c-12.15,0-22,9.85-22,22v33c0,12.15,9.85,22,22,22h55c12.15,0,22-9.85,22-22v-11h-44v5.5c0,3.04-2.46,5.5-5.5,5.5s-5.5-2.46-5.5-5.5v-22c0-3.04,2.46-5.5,5.5-5.5s5.5,2.46,5.5,5.5v5.5h44v-11c0-12.15-9.85-22-22-22Z"/>
      <path class="cls-1" d="M1052.5,211.5h-55c-12.15,0-22,9.85-22,22v33c0,12.15,9.85,22,22,22h77v-22h-45.7c-5.14,0-9.3-4.17-9.3-9.3v-1.7h55v-22c0-12.15-9.85-22-22-22ZM1025.24,244.5h-.47c-2.91,0-5.26-2.36-5.26-5.26h0c0-2.87,2.1-5.44,4.96-5.71,3.28-.31,6.04,2.26,6.04,5.47v.24c0,2.91-2.36,5.26-5.26,5.26Z"/>
      <path class="cls-1" d="M557.5,211.5h-77v22h49.5c3.04,0,5.5,2.46,5.5,5.5h0c0,3.04-2.46,5.5-5.5,5.5h-27.5c-12.15,0-22,9.85-22,22h0c0,12.15,9.85,22,22,22h11s11,0,11,0h33c12.15,0,22-9.85,22-22v-33c0-12.15-9.85-22-22-22ZM535.5,261c0,3.22-2.76,5.79-6.04,5.47-2.86-.27-4.96-2.84-4.96-5.71h0c0-2.91,2.36-5.26,5.26-5.26h.24c3.04,0,5.5,2.46,5.5,5.5h0Z"/>
    </g>
  </g>
</svg>