<?xml version="1.0" encoding="UTF-8"?>
<svg xmlns="http://www.w3.org/2000/svg" viewBox="0 0 68.61 68.61" role="img" aria-label="machines legibility mark">
  <rect width="68.61" height="68.61" fill="#000000"/>
  <path d="M46.09,0c-.38,0-.75.15-1.02.42l-8.46,8.46c-.71.71-1.1,1.66-1.1,2.66v33.15c0,.99.4,1.96,1.14,2.62.87.79,1.35,2,1.08,3.33s-1.3,2.37-2.59,2.66c-2.29.53-4.33-1.2-4.33-3.4,0-1.03.44-1.94,1.15-2.58.75-.68,1.14-1.67,1.14-2.69,0-6.54,0-27.23,0-33.09,0-1-.4-1.95-1.1-2.66L23.53.42c-.27-.27-.64-.42-1.02-.42H3.76C1.68,0,0,1.68,0,3.76v61.08c0,2.08,1.68,3.76,3.76,3.76h7.57c1,0,1.96-.4,2.66-1.1l2.4-2.41c.71-.71,1.1-1.66,1.1-2.66V27.74c0-.99-.4-1.96-1.14-2.62-.87-.79-1.35-2-1.08-3.33s1.3-2.37,2.59-2.66c2.29-.53,4.33,1.2,4.33,3.4,0,1.03-.44,1.94-1.15,2.58-.75.68-1.14,1.67-1.14,2.69,0,6.74,0,28.62,0,34.65,0,1,.4,1.95,1.1,2.66l2.41,2.41c.71.71,1.66,1.1,2.66,1.1h16.34c1,0,1.96-.4,2.66-1.1l2.5-2.5c.71-.71,1.1-1.66,1.1-2.66V27.74c0-.99-.4-1.96-1.14-2.62-.87-.79-1.35-2.01-1.08-3.33s1.3-2.37,2.59-2.66c2.29-.53,4.33,1.2,4.33,3.4,0,1.03-.44,1.94-1.15,2.58-.75.68-1.14,1.67-1.14,2.68,0,6.73,0,28.54,0,34.56,0,1,.4,1.95,1.1,2.66l2.49,2.5c.71.71,1.66,1.1,2.66,1.1h7.48c2.08,0,3.76-1.68,3.76-3.76V3.76c0-2.08-1.68-3.76-3.76-3.76h-18.75Z" fill="#F75300"/>
</svg>
